<svg width="757" height="180" viewBox="0 0 757 180" fill="none" xmlns="http://www.w3.org/2000/svg">
<path fill-rule="evenodd" clip-rule="evenodd" d="M168.213 136.784C170.88 135.282 171.791 131.953 170.253 129.349C168.714 126.748 165.307 125.855 162.64 127.357L89.866 168.392L17.3595 127.51C14.6956 126.007 11.2878 126.897 9.74689 129.502C8.20876 132.106 9.12272 135.434 11.7866 136.936L86.8677 179.269C88.2331 180.042 89.7963 180.181 91.2007 179.786C91.8639 179.685 92.5187 179.465 93.1345 179.119L168.213 136.784Z" fill="black"/>
<path fill-rule="evenodd" clip-rule="evenodd" d="M175.696 93.3824C176.078 91.0854 174.998 88.6923 172.806 87.462L93.4337 42.9241C92.7915 42.5645 92.1081 42.3343 91.4188 42.2279C89.9341 41.8078 88.2844 41.9574 86.8381 42.7687L7.46311 87.3067C5.1553 88.603 4.08071 91.1903 4.65012 93.5943C4.40012 95.5753 5.1775 97.6477 7.49031 98.9521L86.8623 143.706C88.3087 144.52 89.9613 144.67 91.446 144.25C92.1471 144.146 92.8364 143.913 93.4874 143.548L172.862 98.791C175.195 97.4754 175.966 95.3787 175.696 93.3824ZM159.31 93.1446L89.996 54.2506L20.7206 93.1242L90.0349 132.207L159.31 93.1446Z" fill="black"/>
<path fill-rule="evenodd" clip-rule="evenodd" d="M176.903 59.679C179.865 58.0107 180.88 54.3145 179.168 51.4223C177.46 48.533 173.676 47.5417 170.714 49.21L89.8929 94.7822L9.37192 49.3792C6.4104 47.7079 2.62573 48.6992 0.917526 51.5915C-0.793777 54.4808 0.221245 58.18 3.18276 59.8482L86.5631 106.862C88.0826 107.717 89.8155 107.874 91.3783 107.433C92.1117 107.324 92.8389 107.08 93.5228 106.696L176.903 59.679Z" fill="black"/>
<path d="M15.4695 54.4467L89.7393 9.11328L164.009 54.4437L89.7393 96.7579L15.4695 54.4467Z" fill="black"/>
<path fill-rule="evenodd" clip-rule="evenodd" d="M176.805 47.7579C179.773 49.4231 180.8 53.1163 179.102 56.0086C177.399 58.8978 173.615 59.8921 170.647 58.2269L89.8136 12.8693L9.27406 58.0637C6.30636 59.7289 2.52169 58.7346 0.819667 55.8454C-0.879257 52.9531 0.148144 49.2599 3.11275 47.5947L86.4962 0.807559C88.0156 -0.0447097 89.7486 -0.201865 91.3083 0.23938C92.0324 0.351202 92.7504 0.59298 93.425 0.970759L176.805 47.7579Z" fill="black"/>
<path d="M318.044 36.123H252.563V76.3847H317.466V92.4894H252.563V143.871H317.466V160.167H236V19.8267H318.044V36.123Z" fill="black" stroke="black" stroke-miterlimit="2"/>
<path d="M381.79 35.1645C375.627 32.6082 370.813 31.3301 367.346 31.3301C363.879 31.3301 361.632 32.4484 360.605 34.6852C359.578 36.922 359.064 40.6606 359.064 45.901V55.6788H380.442V69.4828H359.064V160.168H343.079V69.4828H329.79V55.6788H343.079V43.792C343.079 34.3337 344.845 27.3998 348.375 22.9901C351.906 18.5805 357.459 16.3757 365.035 16.3757C369.143 16.3757 374.729 17.3343 381.79 19.2516V35.1645Z" fill="black" stroke="black" stroke-miterlimit="2"/>
<path d="M442.278 35.1645C436.115 32.6082 431.3 31.3301 427.833 31.3301C424.367 31.3301 422.12 32.4484 421.093 34.6852C420.065 36.922 419.552 40.6606 419.552 45.901V55.6788H440.93V69.4828H419.552V160.168H403.567V69.4828H390.278V55.6788H403.567V43.792C403.567 34.3337 405.332 27.3998 408.863 22.9901C412.394 18.5805 417.947 16.3757 425.522 16.3757C429.631 16.3757 435.216 17.3343 442.278 19.2516V35.1645Z" fill="black" stroke="black" stroke-miterlimit="2"/>
<path d="M561.296 110.709H469.236C469.878 122.212 473.762 131.447 480.888 138.413C488.014 145.378 496.52 148.861 506.407 148.861C523.226 148.861 536.066 140.617 544.925 124.129L558.407 131.031C552.372 142.151 545.246 150.363 537.029 155.668C528.812 160.972 518.989 163.624 507.562 163.624C491.77 163.624 478.738 158.224 468.466 147.424C458.194 136.623 453.059 123.618 453.059 108.408C453.059 93.198 458.227 80.1609 468.562 69.2966C478.898 58.4324 491.706 53.0002 506.984 53.0002C522.263 53.0002 535.039 58.1448 545.31 68.4339C555.582 78.723 560.91 92.8146 561.296 110.709ZM543.577 96.7129C541.651 87.7659 537.286 80.8 530.481 75.8152C523.676 70.8304 515.844 68.338 506.984 68.338C489.009 68.338 477.068 77.7963 471.162 96.7129H543.577Z" fill="black" stroke="black" stroke-miterlimit="2"/>
<path d="M685.706 138.892C680.185 146.944 672.963 153.079 664.039 157.297C655.116 161.515 645.454 163.624 635.054 163.624C618.877 163.624 605.363 158.32 594.514 147.711C583.664 137.102 578.24 124.129 578.24 108.791C578.24 93.4537 583.696 80.3207 594.61 69.3925C605.524 58.4643 619.647 53.0002 636.98 53.0002C647.252 53.0002 656.721 55.237 665.388 59.7105C674.054 64.1841 680.827 70.447 685.706 78.4993L673.188 86.3599C663.815 74.2175 651.553 68.1463 636.402 68.1463C624.462 68.1463 614.447 71.9488 606.358 79.5538C598.269 87.1588 594.225 96.5851 594.225 107.833C594.225 119.081 598.205 128.731 606.166 136.783C614.126 144.835 624.205 148.861 636.402 148.861C651.039 148.861 663.365 142.726 673.38 130.456L685.706 138.892Z" fill="black" stroke="black" stroke-miterlimit="2"/>
<path d="M756 69.4828H735.203V142.721C735.203 145.405 735.591 147.035 736.353 147.61C737.129 148.185 739.055 148.472 742.131 148.472H751.372V162.085C745.22 163.107 740.526 163.619 737.316 163.619C731.15 163.619 726.599 162.117 723.646 159.113C720.693 156.109 719.216 151.348 719.216 144.83V69.4828H701.113V55.6788H719.216V16.3757H735.203V55.6788H756V69.4828Z" fill="black" stroke="black" stroke-miterlimit="2"/>
</svg>
